<mxfile host="app.diagrams.net" modified="2023-10-11T10:17:05.522Z" agent="Mozilla/5.0 (Windows NT 10.0; Win64; x64) AppleWebKit/537.36 (KHTML, like Gecko) Chrome/117.0.0.0 Safari/537.36" version="22.0.4" etag="k03IeumPTtILIIMwRdcA" type="github">
  <diagram name="PÃ¡gina-1" id="dW3oC8fi2B_X6rkSUQ4h">
    <mxGraphModel>
      <root>
        <mxCell id="0" />
        <mxCell id="1" parent="0" />
      </root>
    </mxGraphModel>
  </diagram>
</mxfile>
